#!OML:ASF G:\JayActor3\Patient Classification 1\Patient 1\Session 5\male.ASF
:FULLY-SPECIFIED
:DEGREES
561
root 13.9249 16.1717 -5.64354 -383.554 87.439 -408.878
lowerback 29.0315 -0.528532 0.543914
upperback 6.03927 -0.0751388 -0.596726
thorax -9.23234 0.151338 -0.991808
lowerneck 5.81097 -0.109482 0.427818
upperneck -20.7079 0.843981 2.71161
head -7.30336 0.32183 0.71945
rclavicle 6.75868e-015 -5.56597e-015
rhumerus -29.8262 3.04926 -89.9872
rradius 36.0552
rwrist -2.86744
rhand -20.7814 -5.03268
rfingers 7.12502
rthumb 5.58542 -34.9391
lclavicle 6.75868e-015 -5.56597e-015
lhumerus -27.4705 -4.69995 85.8785
lradius 32.4794
lwrist 21.4342
lhand -21.8528 9.24843
lfingers 7.12502
lthumb 4.55088 39.1795
rfemur -69.0588 3.00123 16.5544
rtibia 75.8444
rfoot -14.8968 -16.7497
rtoes -9.2136
lfemur -48.5606 6.53953 -27.8585
ltibia 46.0597
lfoot -19.1859 4.92365
ltoes -0.732609
562
root 13.8364 16.1876 -5.64634 -385.015 87.425 -410.558
lowerback 28.9685 -0.505152 0.541392
upperback 6.00575 -0.049224 -0.583352
thorax -9.23879 0.161698 -0.984201
lowerneck 5.82204 -0.129654 0.437771
upperneck -20.7234 0.818754 2.71641
head -7.31012 0.308363 0.721388
rclavicle -7.15625e-015 -2.5842e-015
rhumerus -29.808 3.08094 -89.9975
rradius 36.0075
rwrist -2.82006
rhand -20.7772 -5.16463
rfingers 7.12502
rthumb 5.58946 -35.0709
lclavicle -7.15625e-015 -2.5842e-015
lhumerus -27.4785 -4.76059 85.8695
lradius 32.4635
lwrist 21.4634
lhand -21.8138 9.23255
lfingers 7.12502
lthumb 4.58859 39.1629
rfemur -68.6097 3.01693 16.8126
rtibia 76.9956
rfoot -14.9428 -16.2277
rtoes -9.58768
lfemur -48.9985 6.37734 -27.8071
ltibia 45.7397
lfoot -18.7464 5.01697
ltoes -0.662239
563
root 13.7491 16.2045 -5.64921 -386.325 87.3996 -412.074
lowerback 28.9042 -0.483869 0.538665
upperback 5.97613 -0.0260983 -0.573192
thorax -9.24023 0.17089 -0.979051
lowerneck 5.83083 -0.145198 0.443406
upperneck -20.7348 0.798451 2.71786
head -7.31513 0.297906 0.722565
rclavicle 5.1684e-015 5.36719e-015
rhumerus -29.7959 3.12798 -90.0097
rradius 35.99
rwrist -2.7779
rhand -20.7673 -5.37614
rfingers 7.12502
rthumb 5.59899 -35.2822
lclavicle 5.1684e-015 5.36719e-015
lhumerus -27.4939 -4.80079 85.8558
lradius 32.4553
lwrist 21.4873
lhand -21.786 9.21858
lfingers 7.12502
lthumb 4.61546 39.1483
rfemur -68.0881 3.02619 17.0881
rtibia 78.0502
rfoot -14.9623 -15.6955
rtoes -10.1176
lfemur -49.388 6.22713 -27.7527
ltibia 45.3731
lfoot -18.3116 5.11277
ltoes -0.568811
564
root 13.6625 16.2223 -5.65219 -387.562 87.3667 -413.508
lowerback 28.842 -0.467407 0.540973
upperback 5.94776 -0.00769859 -0.565024
thorax -9.24133 0.177806 -0.977356
lowerneck 5.83713 -0.154823 0.437775
upperneck -20.7461 0.784724 2.71827
head -7.3198 0.291647 0.72477
rclavicle 2.62396e-014 4.41302e-014
rhumerus -29.7917 3.18374 -90.0211
rradius 36.0108
rwrist -2.76779
rhand -20.7138 -5.6719
rfingers 7.12502
rthumb 5.65069 -35.5766
lclavicle 2.62396e-014 4.41302e-014
lhumerus -27.5184 -4.82247 85.8364
lradius 32.4544
lwrist 21.5066
lhand -21.7674 9.19681
lfingers 7.12502
lthumb 4.63336 39.1261
rfemur -67.506 3.01906 17.3814
rtibia 79.0131
rfoot -14.9624 -15.1634
rtoes -10.78
lfemur -49.7415 6.09391 -27.6975
ltibia 44.9703
lfoot -17.8774 5.19005
ltoes -0.440914
565
root 13.5764 16.2403 -5.65503 -388.636 87.3348 -414.775
lowerback 28.7798 -0.454138 0.542901
upperback 5.9195 0.0062249 -0.560023
thorax -9.24238 0.182643 -0.977394
lowerneck 5.84187 -0.162867 0.424627
upperneck -20.7603 0.771621 2.71516
head -7.32508 0.286625 0.72705
rclavicle -1.78906e-014 -1.33186e-014
rhumerus -29.7929 3.23143 -90.0247
rradius 36.0538
rwrist -2.78517
rhand -20.6417 -5.97042
rfingers 7.12502
rthumb 5.72025 -35.8732
lclavicle -1.78906e-014 -1.33186e-014
lhumerus -27.5519 -4.83372 85.8142
lradius 32.4623
lwrist 21.5168
lhand -21.749 9.18166
lfingers 7.12502
lthumb 4.65119 39.1106
rfemur -66.8775 2.98917 17.6813
rtibia 79.891
rfoot -14.944 -14.6366
rtoes -11.5537
lfemur -50.0725 5.98189 -27.6538
ltibia 44.5442
lfoot -17.4385 5.23747
ltoes -0.300114
566
root 13.4908 16.258 -5.65758 -389.578 87.3093 -415.903
lowerback 28.7197 -0.443788 0.545125
upperback 5.89058 0.0160326 -0.560007
thorax -9.24528 0.185523 -0.981752
lowerneck 5.84923 -0.17136 0.419246
upperneck -20.7807 0.756754 2.69952
head -7.33282 0.281247 0.724094
rclavicle 1.94809e-014 3.8763e-014
rhumerus -29.7996 3.25947 -90.0205
rradius 36.1019
rwrist -2.81335
rhand -20.5875 -6.20712
rfingers 7.12502
rthumb 5.77259 -36.1085
lclavicle 1.94809e-014 3.8763e-014
lhumerus -27.5893 -4.8429 85.7879
lradius 32.4699
lwrist 21.5216
lhand -21.7391 9.1819
lfingers 7.12502
lthumb 4.66067 39.1106
rfemur -66.2113 2.92549 17.9846
rtibia 80.6891
rfoot -14.9113 -14.1072
rtoes -12.4334
lfemur -50.3906 5.89622 -27.6273
ltibia 44.1073
lfoot -16.9883 5.24226
ltoes -0.148835
567
root 13.4055 16.2751 -5.65971 -390.414 87.2935 -416.924
lowerback 28.6545 -0.437186 0.54643
upperback 5.86195 0.020268 -0.5649
thorax -9.24536 0.185814 -0.989068
lowerneck 5.85415 -0.180547 0.416319
upperneck -20.8044 0.740647 2.67978
head -7.34115 0.275528 0.719488
rclavicle -1.59028e-015 -1.37161e-014
rhumerus -29.8033 3.27261 -90.0092
rradius 36.1555
rwrist -2.87321
rhand -20.52 -6.41003
rfingers 7.12502
rthumb 5.83782 -36.3096
lclavicle -1.59028e-015 -1.37161e-014
lhumerus -27.6289 -4.85767 85.7598
lradius 32.4801
lwrist 21.5264
lhand -21.7444 9.19337
lfingers 7.12502
lthumb 4.65557 39.1222
rfemur -65.5155 2.83194 18.2822
rtibia 81.4058
rfoot -14.8789 -13.5634
rtoes -13.3386
lfemur -50.7066 5.83361 -27.6188
ltibia 43.6672
lfoot -16.5282 5.1936
ltoes 0.0278748
568
root 13.3206 16.2918 -5.66136 -391.168 87.2877 -417.861
lowerback 28.5824 -0.434276 0.541464
upperback 5.834 0.0177631 -0.571927
thorax -9.24138 0.183143 -0.992712
lowerneck 5.86301 -0.187107 0.415735
upperneck -20.8359 0.728086 2.65536
head -7.35278 0.271768 0.71269
rclavicle 6.36111e-015 1.8487e-014
rhumerus -29.8017 3.27709 -89.9885
rradius 36.1897
rwrist -2.93296
rhand -20.4895 -6.49517
rfingers 7.12502
rthumb 5.86727 -36.3939
lclavicle 6.36111e-015 1.8487e-014
lhumerus -27.6709 -4.87041 85.7314
lradius 32.491
lwrist 21.5254
lhand -21.7515 9.22546
lfingers 7.12502
lthumb 4.64873 39.1545
rfemur -64.7904 2.7137 18.5685
rtibia 82.0357
rfoot -14.8444 -12.9993
rtoes -14.2132
lfemur -51.0227 5.78892 -27.6257
ltibia 43.229
lfoot -16.0567 5.1014
ltoes 0.205055
569
root 13.2364 16.3081 -5.6624 -391.941 87.2926 -418.812
lowerback 28.5057 -0.436695 0.529088
upperback 5.80773 0.00655455 -0.578474
thorax -9.23327 0.17671 -0.988424
lowerneck 5.87271 -0.188339 0.418413
upperneck -20.8702 0.722902 2.62713
head -7.36559 0.271704 0.703501
rclavicle -3.97569e-015 -1.59028e-015
rhumerus -29.7959 3.29456 -89.9669
rradius 36.2289
rwrist -3.00809
rhand -20.4427 -6.61845
rfingers 7.12502
rthumb 5.91238 -36.516
lclavicle -3.97569e-015 -1.59028e-015
lhumerus -27.7137 -4.87963 85.7052
lradius 32.4969
lwrist 21.5209
lhand -21.7695 9.2565
lfingers 7.12502
lthumb 4.63135 39.1859
rfemur -64.0323 2.57236 18.8426
rtibia 82.5718
rfoot -14.8049 -12.4108
rtoes -15.0532
lfemur -51.3343 5.75971 -27.6449
ltibia 42.7937
lfoot -15.5717 4.97024
ltoes 0.396385
570
root 13.1527 16.324 -5.66295 -392.853 87.3048 -419.901
lowerback 28.4209 -0.444275 0.517531
upperback 5.78223 -0.0108526 -0.583885
thorax -9.22037 0.167421 -0.981107
lowerneck 5.88818 -0.185278 0.422959
upperneck -20.9097 0.725204 2.6029
head -7.38126 0.274746 0.694701
rclavicle -1.98785e-015 2.18663e-015
rhumerus -29.787 3.30981 -89.9411
rradius 36.2554
rwrist -3.06744
rhand -20.4059 -6.70773
rfingers 7.12502
rthumb 5.94799 -36.6042
lclavicle -1.98785e-015 2.18663e-015
lhumerus -27.7583 -4.89314 85.6816
lradius 32.5013
lwrist 21.5138
lhand -21.7838 9.29105
lfingers 7.12502
lthumb 4.61749 39.2207
rfemur -63.2499 2.41089 19.1084
rtibia 83.0079
rfoot -14.7448 -11.8113
rtoes -15.88
lfemur -51.6448 5.73758 -27.6675
ltibia 42.3617
lfoot -15.0817 4.80519
ltoes 0.628038
